<svg width="32" height="32" viewBox="0 0 32 32" fill="none" xmlns="http://www.w3.org/2000/svg">
<rect width="32" height="32" fill="black"/>
<path d="M18.1406 19.0195V6.9375H20.3906V19.0195C20.3906 20.1445 20.1602 21.0938 19.6992 21.8672C19.2383 22.6406 18.6016 23.2305 17.7891 23.6367C16.9844 24.0352 16.0586 24.2344 15.0117 24.2344C13.9648 24.2344 13.0352 24.0547 12.2227 23.6953C11.4102 23.3359 10.7734 22.7891 10.3125 22.0547C9.85156 21.3203 9.62109 20.3945 9.62109 19.2773H11.8828C11.8828 19.9961 12.0156 20.5859 12.2812 21.0469C12.5469 21.5078 12.9141 21.8477 13.3828 22.0664C13.8594 22.2852 14.4023 22.3945 15.0117 22.3945C15.6055 22.3945 16.1367 22.2695 16.6055 22.0195C17.082 21.7617 17.457 21.3828 17.7305 20.8828C18.0039 20.375 18.1406 19.7539 18.1406 19.0195Z" fill="white"/>
</svg>
